<?xml version="1.0" encoding="UTF-8"?>
<svg width="691px" height="147px" viewBox="0 0 691 147" version="1.1" xmlns="http://www.w3.org/2000/svg" xmlns:xlink="http://www.w3.org/1999/xlink">
    <!-- Generator: Sketch 48.2 (47327) - http://www.bohemiancoding.com/sketch -->
    <title>behind-the-story</title>
    <desc>Created with Sketch.</desc>
    <defs></defs>
    <g id="Page-1" stroke="none" stroke-width="1" fill="none" fill-rule="evenodd">
        <g id="behind-the-story" transform="translate(3.000000, 2.000000)">
            <polyline id="Path-2" stroke="#0A304E" stroke-width="5" points="468.125 0.5820312 0.1011809 0.5820313 0.1011809 141.603221 685.199225 141.603221 685.199225 61.6179975"></polyline>
            <path d="M74.736,48.48 L91.824,48.48 C100.592,48.48 105.392,51.68 105.392,60 C105.392,64.928 104.048,67.424 100.592,69.6 C104.304,71.2 106.224,73.888 106.224,79.52 C106.224,88.224 100.784,92 92.08,92 L74.736,92 L74.736,48.48 Z M91.632,73.824 L83.568,73.824 L83.568,84.448 L91.632,84.448 C95.28,84.448 97.264,83.36 97.264,79.072 C97.264,75.488 95.152,73.824 91.632,73.824 Z M91.376,56.032 L83.568,56.032 L83.568,66.4 L91.44,66.4 C94.896,66.4 96.432,64.608 96.432,61.152 C96.432,57.568 94.704,56.032 91.376,56.032 Z M113.712,92 L113.712,48.48 L141.872,48.48 L141.872,56.16 L122.544,56.16 L122.544,66.336 L138.032,66.336 L138.032,73.888 L122.544,73.888 L122.544,84.32 L141.872,84.32 L141.872,92 L113.712,92 Z M174.192,92 L174.192,73.952 L158,73.952 L158,92 L149.168,92 L149.168,48.48 L158,48.48 L158,66.272 L174.192,66.272 L174.192,48.48 L183.024,48.48 L183.024,92 L174.192,92 Z M192.496,92 L192.496,48.48 L201.328,48.48 L201.328,92 L192.496,92 Z M210.8,92 L210.8,48.48 L225.712,48.48 L236.208,84.32 L236.848,84.32 L236.848,48.48 L245.68,48.48 L245.68,92 L231.152,92 L220.272,56.16 L219.632,56.16 L219.632,92 L210.8,92 Z M269.808,92 L255.152,92 L255.152,48.48 L269.808,48.48 C284.976,48.48 288.304,54.944 288.304,69.408 C288.304,84.256 285.424,92 269.808,92 Z M279.216,69.408 C279.216,59.872 278.384,56.16 269.808,56.16 L263.984,56.16 L263.984,84.32 L269.808,84.32 C278.384,84.32 279.216,79.072 279.216,69.408 Z" id="BEHIND" fill="#0A304E"></path>
            <path d="M305.832,52.128 L305.832,47.712 L337.832,47.712 L337.832,52.128 L324.328,52.128 L324.328,92 L319.464,92 L319.464,52.128 L305.832,52.128 Z M371.56,92 L371.56,71.968 L349.032,71.968 L349.032,92 L344.104,92 L344.104,47.712 L349.032,47.712 L349.032,67.552 L371.56,67.552 L371.56,47.712 L376.424,47.712 L376.424,92 L371.56,92 Z M387.304,92 L387.304,47.712 L414.248,47.712 L414.248,52.064 L392.232,52.064 L392.232,67.36 L410.408,67.36 L410.408,71.648 L392.232,71.648 L392.232,87.648 L414.248,87.648 L414.248,92 L387.304,92 Z M462.056,48.288 L461.608,52.448 C461.608,52.448 452.712,51.36 449,51.36 C442.728,51.36 439.4,53.6 439.4,58.592 C439.4,64.352 442.472,65.312 450.216,67.04 C459.048,69.024 462.952,71.2 462.952,78.944 C462.952,88.736 457.576,92.576 448.808,92.576 C443.56,92.576 434.792,91.168 434.792,91.168 L435.304,87.072 C435.304,87.072 444.008,88.224 448.552,88.224 C454.824,88.224 458.024,85.472 458.024,79.328 C458.024,74.336 455.4,72.928 448.168,71.52 C439.016,69.536 434.408,67.36 434.408,58.912 C434.408,50.336 440.04,47.008 448.68,47.008 C453.928,47.008 462.056,48.288 462.056,48.288 Z M466.856,52.128 L466.856,47.712 L498.856,47.712 L498.856,52.128 L485.352,52.128 L485.352,92 L480.488,92 L480.488,52.128 L466.856,52.128 Z M519.528,88.288 C529.832,88.288 531.944,82.528 531.944,70.048 C531.944,58.08 529.64,51.424 519.528,51.424 C509.352,51.424 507.112,58.016 507.112,70.048 C507.112,82.144 509.288,88.288 519.528,88.288 Z M519.528,92.64 C505.768,92.64 502.056,84.896 502.056,70.048 C502.056,55.456 505.832,47.072 519.528,47.072 C533.224,47.072 537.064,55.328 537.064,70.048 C537.064,85.28 533.288,92.64 519.528,92.64 Z M563.56,75.04 L551.016,75.04 L551.016,92 L546.088,92 L546.088,47.712 L562.472,47.712 C571.752,47.712 576.616,51.808 576.616,61.152 C576.616,67.68 574.056,72.224 568.488,74.016 L577,92 L571.56,92 L563.56,75.04 Z M571.56,61.152 C571.56,55.072 568.68,52.064 562.472,52.064 L551.016,52.064 L551.016,70.688 L562.536,70.688 C569.192,70.688 571.56,66.72 571.56,61.152 Z M598.44,73.376 L598.44,92 L593.512,92 L593.512,73.376 L579.368,47.712 L584.936,47.712 L595.944,68.448 L606.952,47.712 L612.52,47.712 L598.44,73.376 Z" id="THE-STORY" fill="#0A304E"></path>
        </g>
    </g>
</svg>