<svg xmlns="http://www.w3.org/2000/svg" viewBox="381 1100 49 40.206"><defs><style>.twitter-logo{fill:#fff;}</style></defs><path class="twitter-logo" d="M15,39.97c18.557,0,29-15.65,29-29v-1a19.518,19.518,0,0,0,5-5c-1.84.817-4,.762-6,1,2.071-1.263,4.255-2.692,5-5-1.981,1.173-4.74,1.556-7,2a9.855,9.855,0,0,0-12-2,9.736,9.736,0,0,0-5,11c-8.119-.416-15.883-3.684-21-10C.309,6.57,2.578,12,7,14.97a11.6,11.6,0,0,1-5-1s0-.051,0,0a10.134,10.134,0,0,0,8,10,12.779,12.779,0,0,1-3,0,11.053,11.053,0,0,1-2,0c1.32,4.113,5.681,6.917,10,7-3.573,2.806-8.457,5-13,5-.79-.006-1.216-.9-2-1,4.614,2.962,9.517,5.006,15,5" transform="translate(381 1100.237)"/></svg>